<svg width="41" height="41" viewBox="0 0 41 41" fill="none" xmlns="http://www.w3.org/2000/svg">
<circle cx="20.5" cy="20.7383" r="20" fill="black"/>
<path d="M14.9802 29.7383H10.8329V16.3721H14.9802V29.7383ZM12.9065 14.551C11.575 14.551 10.5 13.4736 10.5 12.1446C10.5 10.8157 11.575 9.73828 12.9065 9.73828C14.2326 9.73828 15.3076 10.8157 15.3076 12.1446C15.3076 13.4681 14.2326 14.551 12.9065 14.551ZM30.5 29.7383H26.3581V23.2412C26.3581 21.6934 26.3308 19.6973 24.2026 19.6973C22.0471 19.6973 21.7196 21.3872 21.7196 23.1318V29.7383H17.5832V16.3721H21.5559V18.1988H21.6105C22.1617 17.1487 23.515 16.0385 25.5287 16.0385C29.7251 16.0385 30.5 18.8058 30.5 22.4044V29.7383Z" fill="white"/>
</svg>
