<svg width="41" height="41" viewBox="0 0 41 41" fill="none" xmlns="http://www.w3.org/2000/svg">
<g clip-path="url(#clip0_372_951)">
<path fill-rule="evenodd" clip-rule="evenodd" d="M40.5 20.7383C40.5 31.784 31.5457 40.7383 20.5 40.7383C9.45431 40.7383 0.5 31.784 0.5 20.7383C0.5 9.69259 9.45431 0.738281 20.5 0.738281C31.5457 0.738281 40.5 9.69259 40.5 20.7383ZM21.2167 15.5032C19.2714 16.3123 15.3836 17.9869 9.55315 20.5272C8.60639 20.9036 8.11043 21.272 8.06528 21.6321C7.98898 22.2408 8.75118 22.4804 9.78911 22.8068C9.9303 22.8512 10.0766 22.8972 10.2266 22.946C11.2477 23.2779 12.6214 23.6662 13.3355 23.6817C13.9832 23.6957 14.7062 23.4286 15.5044 22.8805C20.9519 19.2033 23.764 17.3446 23.9405 17.3046C24.0651 17.2763 24.2377 17.2407 24.3546 17.3447C24.4715 17.4486 24.4601 17.6455 24.4477 17.6983C24.3722 18.0202 21.3802 20.8018 19.8319 22.2412C19.3492 22.69 19.0068 23.0083 18.9368 23.081C18.78 23.2439 18.6202 23.3979 18.4666 23.5459C17.5179 24.4605 16.8065 25.1463 18.506 26.2663C19.3227 26.8045 19.9763 27.2495 20.6283 27.6935C21.3403 28.1784 22.0505 28.6621 22.9694 29.2644C23.2035 29.4178 23.427 29.5772 23.6448 29.7325C24.4735 30.3232 25.2179 30.854 26.1376 30.7693C26.6721 30.7202 27.2241 30.2176 27.5045 28.7189C28.167 25.1768 29.4694 17.5024 29.7704 14.3399C29.7967 14.0628 29.7636 13.7082 29.7369 13.5526C29.7103 13.3969 29.6546 13.1751 29.4523 13.0109C29.2127 12.8165 28.8427 12.7755 28.6773 12.7784C27.925 12.7917 26.7709 13.193 21.2167 15.5032Z" fill="black"/>
</g>
<defs>
<clipPath id="clip0_372_951">
<rect width="40" height="40" fill="white" transform="translate(0.5 0.738281)"/>
</clipPath>
</defs>
</svg>
