<svg width="41" height="41" viewBox="0 0 41 41" fill="none" xmlns="http://www.w3.org/2000/svg">
<circle cx="20.5" cy="20.7383" r="20" fill="black"/>
<path d="M9.5 31.7383L11.0538 26.0889C10.095 24.4352 9.59118 22.5606 9.5921 20.6384C9.59487 14.6287 14.5086 9.73828 20.5461 9.73828C23.4759 9.7392 26.2261 10.8749 28.2948 12.9356C30.3625 14.9963 31.5009 17.7353 31.5 20.6484C31.4972 26.659 26.5835 31.5494 20.5461 31.5494C18.7132 31.5485 16.907 31.0911 15.3072 30.2221L9.5 31.7383ZM15.5761 28.2485C17.1198 29.1606 18.5934 29.7069 20.5424 29.7079C25.5602 29.7079 29.6478 25.6434 29.6505 20.6466C29.6524 15.6398 25.5841 11.5808 20.5497 11.5789C15.5282 11.5789 11.4434 15.6434 11.4416 20.6393C11.4406 22.6789 12.0412 24.206 13.0497 25.8038L12.1296 29.1478L15.5761 28.2485ZM26.064 23.2399C25.9959 23.1262 25.8135 23.0584 25.539 22.9218C25.2655 22.7852 23.9198 22.1261 23.6684 22.0354C23.4179 21.9446 23.2355 21.8988 23.0522 22.1719C22.8698 22.4442 22.3448 23.0584 22.1855 23.2399C22.0262 23.4214 21.8659 23.4443 21.5924 23.3077C21.3188 23.1711 20.4364 22.8842 19.3911 21.9556C18.5778 21.2333 18.0279 20.3414 17.8686 20.0682C17.7092 19.7959 17.852 19.6484 17.9883 19.5127C18.1117 19.3908 18.2619 19.1946 18.3991 19.0351C18.5382 18.8774 18.5833 18.7638 18.6754 18.5814C18.7666 18.3999 18.7215 18.2404 18.6524 18.1038C18.5833 17.9681 18.0362 16.627 17.8087 16.0816C17.5858 15.5509 17.3602 15.6224 17.1925 15.6141L16.6675 15.6049C16.4852 15.6049 16.1886 15.6728 15.9381 15.9459C15.6876 16.2191 14.9802 16.8773 14.9802 18.2184C14.9802 19.5594 15.9611 20.8547 16.0974 21.0362C16.2347 21.2177 18.027 23.9695 20.7726 25.1493C21.4256 25.4298 21.9359 25.5975 22.3329 25.7231C22.9887 25.9303 23.5855 25.9009 24.0571 25.8313C24.583 25.7534 25.6763 25.1722 25.9047 24.536C26.1331 23.8989 26.1331 23.3535 26.064 23.2399Z" fill="white"/>
</svg>
